<svg width="111" height="37" viewBox="0 0 111 37" fill="none" xmlns="http://www.w3.org/2000/svg">
<g id="avis 1" clip-path="url(#clip0_4017_8295)">
<g id="Clip path group">
<mask id="mask0_4017_8295" style="mask-type:luminance" maskUnits="userSpaceOnUse" x="0" y="0" width="111" height="37">
<g id="clip0_16_1426">
<path id="Vector" d="M110.4 0H0.400391V37H110.4V0Z" fill="white"/>
</g>
</mask>
<g mask="url(#mask0_4017_8295)">
<g id="Group">
<path id="Vector_2" fill-rule="evenodd" clip-rule="evenodd" d="M74.9649 0.496582L62.8818 35.2617H71.5215L83.2916 0.496582H74.9649Z" fill="#080A28" fill-opacity="0.3"/>
<path id="Vector_3" fill-rule="evenodd" clip-rule="evenodd" d="M60.5032 0.496582L47.3558 26.1359L47.2932 0.620743L38.5283 0.496582V35.2617H50.987L69.3934 0.496582H60.5032Z" fill="#080A28" fill-opacity="0.3"/>
<path id="Vector_4" fill-rule="evenodd" clip-rule="evenodd" d="M103.765 19.3071C102.951 18.1897 101.824 17.0722 99.8202 15.4581C97.942 13.9682 97.3159 13.2232 97.0029 11.8575V11.2366L96.9403 11.1125C96.9403 9.56047 98.6306 8.31886 100.697 8.31886C102.2 8.31886 103.514 8.62926 105.142 9.31215L105.768 9.62255C106.457 9.93296 107.083 10.3054 107.584 10.8642L110.401 2.60745L110.213 2.48329C107.834 0.993357 103.953 -0.0620117 100.76 -0.0620117C93.1212 -0.0620117 87.2988 5.09067 87.2988 11.7954C87.2988 13.9061 87.9875 15.8306 89.3022 17.5689C89.9909 18.5001 91.8691 20.2383 93.3091 21.2937L94.6864 22.287C95.6255 22.9699 96.189 23.9632 96.189 24.8323C96.189 26.7568 94.5612 28.0605 92.1821 28.0605C89.5527 28.0605 85.2954 26.5705 83.5424 25.0806L83.4172 24.9564L83.292 24.8323L80.4121 33.3373L80.5373 33.5236C83.7928 35.5722 88.3005 36.8759 92.1821 36.8759C99.5697 36.8759 105.392 31.4128 105.392 24.584C105.392 22.5974 104.829 20.8591 103.765 19.3071Z" fill="#080A28" fill-opacity="0.3"/>
<path id="Vector_5" fill-rule="evenodd" clip-rule="evenodd" d="M107.082 33.958C107.082 33.3372 106.644 33.1509 105.955 33.1509H104.953V35.8825H105.517V34.765H105.767L106.393 35.8825H107.082L106.393 34.7029C106.769 34.6409 107.082 34.4546 107.082 33.958ZM106.018 34.2063H105.517V33.5855H105.955C106.205 33.5855 106.456 33.5855 106.456 33.8959C106.456 34.2063 106.268 34.2063 106.018 34.2063Z" fill="#080A28" fill-opacity="0.3"/>
<path id="Vector_6" fill-rule="evenodd" clip-rule="evenodd" d="M105.956 31.9712C104.579 31.9712 103.389 32.9024 103.389 34.4545C103.389 36.0686 104.579 36.9377 105.956 36.9377C107.271 36.9377 108.523 36.0065 108.523 34.4545C108.46 32.9024 107.271 31.9712 105.956 31.9712ZM105.956 36.441C104.954 36.441 104.14 35.634 104.14 34.5165C104.14 33.3991 104.954 32.592 105.956 32.592C106.958 32.592 107.772 33.337 107.772 34.5165C107.772 35.6961 106.895 36.441 105.956 36.441Z" fill="#080A28" fill-opacity="0.3"/>
<path id="Vector_7" fill-rule="evenodd" clip-rule="evenodd" d="M23.6275 0.496582H18.3059L0.400391 35.1376H9.10272L13.673 26.4463H23.064V34.8892L23.1892 35.1996H31.8916V0.496582H23.6275ZM16.6155 19.9278L23.0014 8.31873L23.064 19.9278H16.6155Z" fill="#080A28" fill-opacity="0.3"/>
</g>
</g>
</g>
</g>
<defs>
<clipPath id="clip0_4017_8295">
<rect width="110" height="37" fill="white" transform="translate(0.400391)"/>
</clipPath>
</defs>
</svg>
