<svg width="185" height="37" viewBox="0 0 185 37" fill="none" xmlns="http://www.w3.org/2000/svg">
<g id="facebook 1" clip-path="url(#clip0_4017_8275)">
<g id="Clip path group">
<mask id="mask0_4017_8275" style="mask-type:luminance" maskUnits="userSpaceOnUse" x="0" y="0" width="185" height="37">
<g id="clip0_16_1388">
<path id="Vector" d="M185 0H0V37H185V0Z" fill="white"/>
</g>
</mask>
<g mask="url(#mask0_4017_8275)">
<g id="Group">
<path id="Vector_2" d="M101.69 12.2898C98.9251 11.9847 96.4998 12.8563 94.4575 15.3404V14.5559V1.04594V0.915194V0L87.0967 0.915194V36.477H94.4575V34.3852C95.4361 35.126 96.4148 35.9976 97.5636 36.3899C101.861 37.9588 107.52 36.6949 109.477 30.8115C110.753 27.02 110.711 23.1849 109.775 19.3498C108.711 15.0789 105.945 12.7691 101.69 12.2898ZM102.797 27.6737C102.456 30.0271 100.669 31.2473 98.4996 31.073C97.9465 31.0294 97.4785 30.8987 97.0104 30.7244C95.2659 29.6784 94.7554 27.9788 94.5852 26.8893C94.4575 25.2332 94.3299 21.7468 95.1383 20.0907C95.8191 18.8269 96.9679 18.1296 98.5422 18.086C100.754 17.9988 102.456 19.1319 102.754 21.4417C103.052 23.5336 103.095 25.669 102.797 27.6737Z" fill="#080A28" fill-opacity="0.3"/>
<path id="Vector_3" d="M127.773 12.7256C125.22 12.0283 122.624 12.0283 120.071 12.7256C116.242 13.7715 113.689 16.2556 112.881 20.1779C112.413 22.3134 112.327 24.6231 112.455 26.8022C112.71 31.8575 115.774 35.4311 120.497 36.5642C120.582 36.5642 120.624 36.6078 120.71 36.6078C120.71 36.6078 120.71 36.6078 120.752 36.6078C120.922 36.6514 121.135 36.695 121.305 36.695C121.348 36.695 121.433 36.695 121.475 36.695C121.688 36.7386 121.986 36.7821 122.284 36.7821C123.22 36.8693 124.369 36.9565 125.39 36.8257C125.432 36.8257 125.475 36.8257 125.56 36.8257C130.453 36.5642 134.155 33.4264 135.218 28.589C135.814 25.9305 135.814 23.2721 135.218 20.6137C134.282 16.5171 131.815 13.8587 127.773 12.7256ZM128.113 27.3251C128.07 27.4995 128.07 27.6302 128.028 27.8045C127.56 30.0271 125.943 31.2474 123.858 31.1166C121.603 31.0295 120.029 29.6785 119.816 27.3251C119.646 25.6255 119.646 23.9258 119.773 22.2262C119.986 19.5678 121.603 18.086 124.071 18.1296C126.071 18.1732 127.517 19.3499 128.028 21.311C128.496 23.3157 128.155 26.8457 128.113 27.3251Z" fill="#080A28" fill-opacity="0.3"/>
<path id="Vector_4" d="M17.2746 12.5949H11.9986V9.02132C12.3816 5.66561 17.8703 6.27574 17.8703 6.27574V6.05783V6.01425V0.479506C17.6575 0.435925 6.97792 -2.17892 4.89305 6.14499V6.18857C4.55267 7.23451 4.59522 11.9848 4.59522 12.5949H0V18.9577H4.85051V36.2592H11.9135V18.9577H17.3172L17.8703 12.5949H17.2746Z" fill="#080A28" fill-opacity="0.3"/>
<path id="Vector_5" d="M34.0808 15.6453C33.9957 15.5582 33.9106 15.471 33.8255 15.3839C33.8255 15.3839 33.8255 15.3403 33.7829 15.3403C33.6978 15.2531 33.6127 15.166 33.6127 15.166C31.9534 13.4227 31.3151 13.0305 30.0387 12.6383C25.0605 11.113 20.1675 13.815 18.6357 18.9575C17.6997 22.1389 17.6571 25.3638 18.2103 28.5888C19.4016 35.5181 24.4649 37.8715 29.8259 36.6948C31.4853 36.3462 32.7192 35.3002 33.8255 33.8185C33.8255 33.8185 33.9106 33.6877 34.0382 33.4263V36.4769H40.8885V12.6383H34.0808V15.6453ZM33.4425 27.6736C33.2298 29.8962 31.4853 31.2036 29.4005 31.1165C27.273 31.0293 25.9115 29.8962 25.4435 27.8044C24.9329 24.8409 25.5711 21.3544 25.6137 21.0493C26.1668 19.0882 27.5709 18.0859 29.6557 18.1294C31.6981 18.173 33.2298 19.3933 33.4851 21.5723C33.6553 23.577 33.6553 25.6253 33.4425 27.6736Z" fill="#080A28" fill-opacity="0.3"/>
<path id="Vector_6" d="M61.9076 34.7775C61.6097 33.6008 61.2268 32.4241 60.8864 31.2475L60.546 29.9836C60.546 29.9836 51.9513 34.2109 50.5897 26.1921C50.4621 24.8847 50.5046 23.4901 50.6748 22.1827C51.0152 19.6986 52.4618 18.3912 54.8445 18.1733C55.653 18.0861 56.4614 18.1297 57.2273 18.2604C58.291 18.4347 59.3547 18.7834 60.5035 19.0885C60.929 17.8246 61.3119 16.5608 61.6948 15.2969C61.7374 15.079 61.8225 14.9483 61.865 14.774L62.0778 14.0331C62.0352 13.9459 61.9076 13.8152 61.7374 13.728C61.5246 13.5537 61.1843 13.423 60.6737 13.2051C60.4609 13.1179 60.2482 13.0743 60.0354 12.9872C59.8653 12.9436 59.7376 12.9 59.7376 12.9C57.4825 12.2463 55.1424 12.2027 52.8022 12.4206C47.8241 12.9436 44.4628 15.9506 43.5267 20.9188C43.0161 23.5337 43.0587 26.1921 43.6118 28.8069C44.4628 32.7292 46.7604 35.2569 50.5472 36.39C53.015 37.1309 55.5253 37.1744 58.0357 36.7822C59.0994 36.6079 60.5886 36.0413 61.6948 35.6491L62.1203 35.5184L61.9076 34.7775Z" fill="#080A28" fill-opacity="0.3"/>
<path id="Vector_7" d="M84.5856 25.451C84.5431 23.7949 84.5856 22.1389 84.3303 20.5264C83.6921 16.0811 81.0541 13.2484 76.7993 12.5075C75.1825 12.246 73.438 12.246 71.7786 12.4204C67.2259 12.8562 63.7795 15.7761 63.0987 20.1341C62.6733 22.7926 62.6307 25.5817 62.9711 28.2402C63.4817 32.2496 65.3963 34.7773 68.6726 35.9975H68.7151C70.2043 36.4769 77.5652 38.438 84.0325 35.0823L83.7772 34.1235C83.4794 32.8161 83.0964 31.5523 82.7986 30.2449L82.7561 30.1141C82.7561 30.1141 82.6284 30.1577 82.3731 30.2449C82.0753 30.332 81.82 30.4192 81.5222 30.5063C81.4796 30.5063 81.4371 30.5499 81.352 30.5499C80.3734 30.8114 78.9693 31.1601 77.4801 31.378C76.2462 31.5087 74.9697 31.5087 73.7358 31.4215C71.6935 31.0729 70.1192 29.9398 70.2043 27.2814H71.3957C75.4377 27.2814 79.4373 27.2814 83.4794 27.2814C83.5645 27.2814 83.6921 27.2814 83.7772 27.2814C83.7772 27.2814 84.6282 27.2814 84.6707 27.2814C84.6707 27.2814 84.6707 27.0635 84.6707 27.0199L84.5856 25.451ZM77.9481 22.1824H69.9916C70.0341 20.57 70.2469 19.0446 71.6509 18.1294C73.1401 17.1707 74.7995 17.1271 76.3313 17.9987C77.9055 18.9139 78.0332 20.4828 77.9481 22.1824Z" fill="#080A28" fill-opacity="0.3"/>
<path id="Vector_8" d="M185 12.8999H177.171L170.406 23.7515V1.08952V0.915194V0L163.045 0.915194V36.477H170.406V25.6254L177.171 36.5206H185L177.639 24.6667L185 12.8999Z" fill="#080A28" fill-opacity="0.3"/>
<path id="Vector_9" d="M152.876 12.7256C150.323 12.0283 147.728 12.0283 145.175 12.7256C141.345 13.7715 138.793 16.2556 137.984 20.1779C137.516 22.3134 137.431 24.6231 137.559 26.8022C137.814 31.8575 140.877 35.4311 145.6 36.5642C145.685 36.5642 145.728 36.6078 145.813 36.6078C145.813 36.6078 145.813 36.6078 145.856 36.6078C146.026 36.6514 146.239 36.695 146.409 36.695C146.451 36.695 146.536 36.695 146.579 36.695C146.792 36.7386 147.089 36.7821 147.387 36.7821C148.323 36.8693 149.472 36.9565 150.493 36.8257C150.536 36.8257 150.578 36.8257 150.621 36.8257C155.514 36.5642 159.216 33.4264 160.279 28.589C160.875 25.9305 160.875 23.2721 160.279 20.6137C159.429 16.5171 156.961 13.8587 152.876 12.7256ZM153.216 27.3251C153.174 27.4995 153.174 27.6302 153.131 27.8045C152.621 30.0271 151.046 31.2474 148.962 31.1166C146.707 31.0295 145.132 29.6349 144.92 27.3251C144.749 25.6255 144.749 23.9258 144.877 22.2262C145.09 19.5678 146.707 18.086 149.174 18.1296C151.174 18.1732 152.621 19.3499 153.131 21.311C153.599 23.3157 153.259 26.8457 153.216 27.3251Z" fill="#080A28" fill-opacity="0.3"/>
</g>
</g>
</g>
</g>
<defs>
<clipPath id="clip0_4017_8275">
<rect width="185" height="37" fill="white"/>
</clipPath>
</defs>
</svg>
