<svg width="145" height="39" viewBox="0 0 145 39" fill="none" xmlns="http://www.w3.org/2000/svg">
<g id="forbes 1" clip-path="url(#clip0_4017_8308)">
<g id="Clip path group">
<mask id="mask0_4017_8308" style="mask-type:luminance" maskUnits="userSpaceOnUse" x="0" y="0" width="145" height="39">
<g id="clip0_16_1418">
<path id="Vector" d="M144.8 0.5H0.799805V38.5H144.8V0.5Z" fill="white"/>
</g>
</mask>
<g mask="url(#mask0_4017_8308)">
<g id="Group">
<path id="Vector_2" d="M51.8486 22.4655C51.3173 17.8351 49.3436 14.4293 46.1554 12.5541C42.5877 10.4494 37.1602 10.2963 33.2888 12.248C30.5181 13.6639 28.2408 16.3809 27.216 19.4806C26.1533 22.6951 26.1533 26.9046 27.216 30.1956C27.8992 32.3004 28.8101 33.8311 30.1765 35.247C31.8465 36.9308 34.0479 38.0023 36.5529 38.3467C37.4638 38.4615 40.2725 38.4998 41.2213 38.3467C41.6768 38.2701 42.4359 38.1171 42.9293 37.964C47.4838 36.6246 50.5961 33.104 51.6589 28.0526C51.9245 26.8663 52.0005 23.8814 51.8486 22.4655ZM40.3104 36.3567C37.4638 37.1986 35.4522 34.4816 34.6552 28.7797C34.3895 26.9429 34.3895 21.9298 34.6552 19.825C35.2245 15.2329 36.6288 12.9368 38.8302 12.9368C39.817 12.9368 40.3863 13.1664 41.1454 13.97C43.0052 15.8452 43.8782 19.4424 43.8782 25.106C43.8782 29.6216 43.4227 32.4534 42.4359 34.3668C41.9804 35.2852 41.0695 36.1271 40.3104 36.3567Z" fill="#080A28" fill-opacity="0.3"/>
<path id="Vector_3" d="M90.2586 11.4063C89.6513 11.2915 89.082 11.2533 87.9054 11.2915C86.1215 11.3681 84.869 11.636 83.5406 12.2482C83.0851 12.4396 82.7056 12.6309 82.6676 12.6309C82.6297 12.6309 82.6297 9.9139 82.6676 6.58459C82.7815 1.87764 82.7435 0.5 82.6676 0.5C82.326 0.5 71.7746 2.5282 71.6608 2.60473C71.5849 2.68127 71.5469 2.91088 71.5469 3.25529C71.5849 3.82931 71.5089 3.79104 72.7994 4.09718C73.1789 4.17372 73.6344 4.36506 73.8242 4.47986C74.2417 4.786 74.6212 5.43656 74.849 6.39325C75.0387 7.15861 75.0767 7.69436 75.1526 12.8223C75.2285 18.0267 75.2285 23.4225 75.0767 33.2573L75.0008 37.352L75.7599 37.5433C76.8606 37.8112 79.9728 38.3087 81.0356 38.4235C82.5538 38.5765 86.0456 38.5383 87.1842 38.3852C92.0424 37.6581 95.6861 34.8263 97.394 30.4638C97.8495 29.3157 98.267 27.5171 98.4188 26.216C98.6086 24.6853 98.4947 21.5856 98.229 20.3228C97.2043 15.501 94.2438 12.21 90.2586 11.4063ZM83.4647 36.3187C83.0472 36.2805 82.9713 36.2422 82.8574 36.0126C82.7056 35.6682 82.5538 23.4225 82.6297 18.5242L82.6676 14.6974L83.3508 14.506C83.8063 14.353 84.3376 14.3147 84.9829 14.3147C85.8558 14.3147 85.9697 14.353 86.6908 14.6974C88.4747 15.5775 89.6892 17.7971 90.2586 21.1264C90.4863 22.351 90.4863 25.7568 90.2965 27.2493C89.8411 30.8847 88.6645 33.8313 87.0704 35.2472C86.4631 35.8213 85.8558 36.1274 85.0967 36.2422C84.6413 36.3953 84.4515 36.3953 83.4647 36.3187Z" fill="#080A28" fill-opacity="0.3"/>
<path id="Vector_4" d="M118.004 11.9039C115.157 10.4497 110.755 10.5645 107.566 12.1335C104.53 13.626 102.443 16.1134 101.266 19.634C100.658 21.4709 100.469 22.9633 100.507 25.3359C100.545 26.8284 100.62 27.632 100.772 28.3208C101.987 33.7166 105.631 37.3903 110.793 38.347C111.931 38.5383 114.474 38.5383 115.651 38.347C117.283 38.0409 119.181 37.3138 120.357 36.5101C121.799 35.5152 123.28 34.0227 123.28 33.5635C123.28 33.2956 122.786 32.6451 122.559 32.6451C122.445 32.6451 122.065 32.8364 121.648 33.1043C120.243 34.0227 118.877 34.4054 116.979 34.4054C114.398 34.4054 112.728 33.7549 111.096 32.0711C110.375 31.3057 110.071 30.923 109.692 30.1959C108.857 28.5504 108.401 26.7136 108.326 24.5706L108.288 23.6521L115.954 23.6139L123.621 23.5756L123.659 23.0399C123.659 22.7337 123.659 22.0066 123.583 21.3561C123.09 16.7257 121.23 13.5112 118.004 11.9039ZM110.299 21.3943L108.364 21.4326V21.0117C108.364 20.7821 108.439 20.1698 108.515 19.6723C109.161 15.4628 110.717 12.9371 112.652 12.9371C114.436 12.9371 115.537 15.4246 115.765 19.9784L115.841 21.2795L114.019 21.3561C113.032 21.3561 111.362 21.3943 110.299 21.3943Z" fill="#080A28" fill-opacity="0.3"/>
<path id="Vector_5" d="M144.116 26.1781C143.243 24.4178 141.649 23.2315 138.271 21.8156C135.538 20.6675 134.172 19.8639 133.299 18.9455C132.616 18.1801 132.426 17.5678 132.502 16.4581C132.578 15.4248 132.805 14.8125 133.451 14.1237C134.286 13.2436 135.424 12.9374 136.791 13.2053C139.03 13.6645 140.472 15.2335 141.687 18.5628C142.142 19.7491 142.18 19.7874 142.977 19.4812L143.471 19.2899V17.9505C143.471 17.2234 143.433 15.6544 143.395 14.4681L143.319 12.3251L142.939 12.1721C140.89 11.2919 136.98 10.7561 134.437 10.9858C131.553 11.2536 129.427 12.1721 127.795 13.8941C126.163 15.5779 125.442 17.5678 125.556 19.9404C125.67 21.8921 126.239 23.308 127.416 24.5326C128.516 25.6806 129.465 26.2164 132.122 27.2496C136.411 28.9334 137.55 29.9284 137.55 32.0331C137.55 33.7934 136.601 35.0945 134.931 35.6685C134.324 35.8981 132.805 35.8981 131.97 35.6685C129.845 35.0945 128.213 33.2194 126.808 29.7753L126.467 28.8951L126.049 28.9334C125.822 28.9334 125.518 29.0099 125.328 29.0865L125.025 29.2395L125.063 30.7702C125.063 31.6121 125.101 33.3725 125.138 34.6736L125.214 37.0462L125.708 37.2375C126.695 37.6585 129.617 38.309 131.477 38.5004C131.705 38.5386 132.957 38.5386 134.286 38.5004C136.563 38.4621 136.715 38.4621 137.853 38.1559C141.231 37.2758 143.395 35.3624 144.381 32.4923C144.685 31.6121 144.723 31.3443 144.761 30.0049C144.837 28.2063 144.685 27.3261 144.116 26.1781Z" fill="#080A28" fill-opacity="0.3"/>
<path id="Vector_6" d="M14.5014 4.05923H17.7655C21.523 4.05923 22.1303 4.13577 23.4587 4.78632C25.3944 5.74302 26.7987 7.61815 28.0133 10.8709C28.5067 12.2103 28.5067 12.2103 29.6074 11.8658L30.3285 11.6362L30.2526 6.81452C30.2147 4.17404 30.1388 1.80143 30.1008 1.57182L30.0249 1.15088H15.7539C7.89732 1.15088 1.33117 1.15088 1.1414 1.18915L0.799805 1.22741L0.837759 2.0693L0.875714 2.9112L1.93844 3.10254C3.34276 3.25561 4.17777 3.67655 4.70913 4.40364C5.84777 6.04916 6.03754 8.30697 6.03754 19.0219C6.03754 30.4258 5.80982 33.2193 4.70913 34.6352C4.13981 35.3623 3.68435 35.6302 2.43185 35.8598C0.76185 36.1659 0.837759 36.1277 0.837759 37.0078C0.837759 37.5053 0.875714 37.7349 0.951624 37.7732C1.1414 37.8497 19.3976 37.8497 19.5874 37.7732C19.853 37.6584 19.8151 36.319 19.5874 36.1659C19.4735 36.1277 18.8662 35.9746 18.221 35.8981C17.5758 35.7833 16.8546 35.6302 16.6269 35.5537C15.4123 35.0179 14.7671 33.5637 14.5014 30.9615C14.3117 29.0864 14.1978 25.604 14.1978 23.0401V20.6675L15.2985 20.7057C17.6517 20.7823 18.9042 20.8971 19.3976 21.1267C20.4603 21.5859 21.3333 22.9253 21.7887 24.8004L22.0165 25.7953L22.8515 25.8336L23.6865 25.8719V19.596V13.32L22.8515 13.3583L22.0165 13.3966L21.7508 14.3915C21.2574 16.3049 20.4983 17.4912 19.3596 18.027C18.9042 18.2566 18.5626 18.2948 17.4619 18.3714C16.7028 18.4096 15.678 18.4479 15.1467 18.4479H14.1978V15.3482C14.1978 12.2485 14.3496 5.62822 14.4635 4.59498L14.5014 4.05923Z" fill="#080A28" fill-opacity="0.3"/>
<path id="Vector_7" d="M70.5223 10.8325C69.3078 10.8325 68.6625 10.9855 67.7137 11.4065C65.9298 12.2101 64.6014 13.5495 63.4248 15.7308L63.0452 16.4196L63.0832 15.2333C63.1212 14.5827 63.1591 13.3582 63.1971 12.478L63.235 10.9473H62.9693C62.6277 10.9473 52.38 13.0137 52.0764 13.1285C51.8866 13.2051 51.8486 13.3199 51.8486 13.8174C51.8486 14.3149 51.8866 14.3914 52.0764 14.4297C52.1902 14.4679 52.6836 14.5445 53.1391 14.621C54.05 14.8123 54.3157 14.9271 54.6952 15.4246C55.3784 16.3431 55.5302 17.9503 55.5302 24.8385C55.5302 30.4639 55.4164 33.2575 55.1507 34.1376C54.8091 35.2091 54.2398 35.7449 53.2529 35.9362C52.9114 36.0127 52.4939 36.0893 52.3041 36.1275L51.9245 36.2041L51.8866 36.9312C51.8486 37.4287 51.8866 37.6965 52.0004 37.7348C52.0764 37.7731 55.5682 37.8113 59.7811 37.8113L67.448 37.7731L67.4859 36.9694C67.4859 36.5102 67.4859 36.1658 67.448 36.1658C66.8407 36.1658 65.0189 35.8979 64.7532 35.7831C63.8803 35.4005 63.4628 34.6351 63.273 33.0661C63.0453 31.191 62.9314 26.5606 63.0073 22.7721C63.0832 18.9453 63.0832 18.907 63.3109 18.6774C63.8803 18.0651 65.2846 17.6059 66.5371 17.6059C67.5619 17.6059 68.5866 17.8738 69.6873 18.4095C70.2187 18.6774 70.7121 18.8687 70.788 18.8305C70.9398 18.7922 73.4448 12.0953 73.4448 11.7509C73.3689 11.2917 71.9266 10.8325 70.5223 10.8325Z" fill="#080A28" fill-opacity="0.3"/>
</g>
</g>
</g>
</g>
<defs>
<clipPath id="clip0_4017_8308">
<rect width="144" height="38" fill="white" transform="translate(0.799805 0.5)"/>
</clipPath>
</defs>
</svg>
