<svg width="137" height="45" viewBox="0 0 137 45" fill="none" xmlns="http://www.w3.org/2000/svg">
<g id="google 1" clip-path="url(#clip0_4017_8288)">
<path id="Vector" d="M131.519 27.4648L135.328 30.0042C134.092 31.8251 131.135 34.9493 126.022 34.9493C119.674 34.9493 114.947 30.0377 114.947 23.7895C114.947 17.1406 119.724 12.6299 125.488 12.6299C131.285 12.6299 134.125 17.2406 135.044 19.7298L135.545 20.9996L120.61 27.1808C121.746 29.4195 123.517 30.5555 126.022 30.5555C128.529 30.5555 130.266 29.3192 131.519 27.4648ZM119.808 23.439L129.781 19.2956C129.23 17.9092 127.593 16.9236 125.638 16.9236C123.149 16.9236 119.691 19.1288 119.808 23.439Z" fill="#080A28" fill-opacity="0.3"/>
<path id="Vector_2" d="M108.136 1.2532H112.947V33.9303H108.136V1.2532Z" fill="#080A28" fill-opacity="0.3"/>
<path id="Vector_3" d="M101.491 13.499H106.136V33.3459C106.136 41.5818 101.274 44.9731 95.5275 44.9731C90.115 44.9731 86.8574 41.3313 85.6378 38.3744L89.8977 36.6034C90.666 38.4243 92.5205 40.5796 95.5275 40.5796C99.2195 40.5796 101.491 38.2907 101.491 34.0142V32.4105H101.324C100.221 33.7468 98.117 34.9495 95.4441 34.9495C89.8642 34.9495 84.752 30.0881 84.752 23.8235C84.752 17.5251 89.8642 12.6138 95.4441 12.6138C98.1004 12.6138 100.221 13.7999 101.324 15.103H101.491V13.499ZM101.825 23.8235C101.825 19.8808 99.2029 17.0073 95.8617 17.0073C92.487 17.0073 89.647 19.8808 89.647 23.8235C89.647 27.7158 92.487 30.5391 95.8617 30.5391C99.2031 30.556 101.825 27.7158 101.825 23.8235Z" fill="#080A28" fill-opacity="0.3"/>
<path id="Vector_4" d="M58.4324 23.7397C58.4324 30.1716 53.4208 34.8993 47.2729 34.8993C41.1252 34.8993 36.1133 30.155 36.1133 23.7397C36.1133 17.2745 41.1252 12.5635 47.2729 12.5635C53.4208 12.5635 58.4324 17.2745 58.4324 23.7397ZM53.5543 23.7397C53.5543 19.7305 50.6473 16.9736 47.2729 16.9736C43.8984 16.9736 40.9914 19.7305 40.9914 23.7397C40.9914 27.7156 43.8984 30.5057 47.2729 30.5057C50.6476 30.5057 53.5543 27.7156 53.5543 23.7397Z" fill="#080A28" fill-opacity="0.3"/>
<path id="Vector_5" d="M82.7518 23.7895C82.7518 30.2214 77.7399 34.949 71.5922 34.949C65.4443 34.949 60.4326 30.2211 60.4326 23.7895C60.4326 17.3243 65.4443 12.6299 71.5922 12.6299C77.7399 12.6299 82.7518 17.3077 82.7518 23.7895ZM77.8568 23.7895C77.8568 19.7802 74.95 17.0234 71.5753 17.0234C68.2009 17.0234 65.2938 19.7802 65.2938 23.7895C65.2938 27.7654 68.2009 30.5555 71.5753 30.5555C74.9667 30.5555 77.8568 27.7488 77.8568 23.7895Z" fill="#080A28" fill-opacity="0.3"/>
<path id="Vector_6" d="M17.8585 30.0544C10.8586 30.0544 5.3792 24.4077 5.3792 17.4078C5.3792 10.4081 10.8586 4.76145 17.8585 4.76145C21.6341 4.76145 24.3904 6.24821 26.4285 8.15279L29.7866 4.79497C26.9467 2.07192 23.1544 0 17.8585 0C8.26932 0.000268175 0.200195 7.81891 0.200195 17.4078C0.200195 26.9972 8.26932 34.8156 17.8585 34.8156C23.0375 34.8156 26.9467 33.1116 30.0039 29.9375C33.1445 26.7966 34.1134 22.3862 34.1134 18.8111C34.1134 17.6918 33.9798 16.5392 33.8294 15.6872H17.8585V20.3314H29.2353C28.9011 23.2385 27.9823 25.2264 26.6291 26.5794C24.9919 28.2335 22.4027 30.0544 17.8585 30.0544Z" fill="#080A28" fill-opacity="0.3"/>
</g>
<defs>
<clipPath id="clip0_4017_8288">
<rect width="136" height="45" fill="white" transform="translate(0.200195)"/>
</clipPath>
</defs>
</svg>
