<svg width="151" height="39" viewBox="0 0 151 39" fill="none" xmlns="http://www.w3.org/2000/svg">
<g id="pinterest 1" clip-path="url(#clip0_4017_8319)">
<path id="Vector" d="M34.6791 13.7544C36.3119 13.7544 37.896 12.3615 38.1641 10.6453C38.4809 8.9788 37.3842 7.58594 35.7514 7.58594C34.1186 7.58594 32.5345 8.9788 32.2664 10.6453C31.9252 12.3615 32.9975 13.7544 34.6791 13.7544Z" fill="#080A28" fill-opacity="0.3"/>
<path id="Vector_2" d="M145.858 18.7041C145.858 18.7041 149.465 18.7041 149.513 18.7041C150.025 18.7041 150.318 18.5051 150.415 18.0077C150.586 17.3113 150.878 16.1174 150.951 15.794C151.049 15.3712 150.805 15.0479 150.342 15.0479C150.22 15.0479 148.514 15.0479 146.735 15.0479C147.003 13.9783 148.002 10.5459 148.002 8.30743C148.002 3.83039 144.274 0.0249023 139.01 0.0249023C133.039 0.0249023 129.164 4.10398 129.164 9.84952C129.164 11.516 129.773 13.4809 130.529 14.6996C130.212 14.6748 129.895 14.6748 129.554 14.6748C125.021 14.6748 122.17 17.1869 122.17 20.8431C122.17 24.2755 124.826 25.5938 127.312 26.4892C129.53 27.2851 131.552 27.6333 131.552 29.3993C131.552 30.5931 130.431 31.2896 128.238 31.2896C125.63 31.2896 124.192 30.0459 123.851 29.5734C124.095 29.3744 124.46 28.9018 124.46 28.1308C124.46 27.0364 123.705 26.141 122.291 26.141C121.097 26.141 120.098 27.1359 119.854 28.4292C117.954 30.0211 115.858 31.0408 112.909 31.0408C110.009 31.0408 108.498 29.4988 108.498 26.2156C109.18 26.4146 110.959 26.6882 112.129 26.6882C117.052 26.6882 120.391 24.3999 120.391 19.8482C120.391 17.3859 118.27 14.7991 114.103 14.7991C108.595 14.7991 105.525 18.3559 104.184 22.2609C103.819 22.1614 103.429 22.0868 103.063 21.9873C103.356 21.1167 103.575 20.1218 103.575 19.0026C103.575 17.0625 102.405 14.7991 99.261 14.7991C97.0676 14.7991 94.9961 16.2666 93.5583 18.4554C93.9238 17.0377 94.1432 16.0676 94.1675 16.0179C94.265 15.6448 94.1188 15.222 93.5339 15.222C92.8028 15.222 90.317 15.222 90.317 15.222C89.854 15.222 89.5371 15.3961 89.4153 15.9184C89.3178 16.2666 88.2211 20.6939 87.1488 25.0217C86.4664 27.7079 82.9571 31.0657 78.546 31.0657C75.6459 31.0657 74.1349 29.4241 74.1349 26.141C74.8904 26.4394 76.5964 26.713 77.7662 26.713C82.884 26.713 86.0278 24.4248 86.0278 19.8731C86.0278 17.4107 83.9075 14.824 79.7402 14.824C73.5501 14.824 69.7482 19.7239 69.1146 25.2953C68.8465 27.6084 66.9456 30.7921 64.8498 30.7921C63.8506 30.7921 63.2657 30.1454 63.2657 29.051C63.2657 28.1059 63.9237 25.7679 64.6304 22.8578C64.8741 21.8878 65.2397 20.3954 65.6296 18.7539C67.4574 18.7539 68.9196 18.7539 68.9927 18.7539C69.5045 18.7539 69.797 18.5549 69.8945 18.0574C70.0651 17.361 70.3575 16.1671 70.4306 15.8438C70.5281 15.4209 70.2844 15.0976 69.8213 15.0976C69.6995 15.0976 66.507 15.0976 66.507 15.0976C66.507 15.0976 68.0423 8.87949 68.0667 8.73026C68.2129 8.10845 67.7011 7.73536 67.165 7.85972C67.165 7.85972 64.606 8.38204 64.143 8.48153C63.6556 8.58102 63.29 8.85462 63.1194 9.55105C63.0951 9.65054 61.7547 15.1225 61.7547 15.1225C61.7547 15.1225 59.147 15.1225 59.0983 15.1225C58.5865 15.1225 58.2941 15.3215 58.1966 15.8189C58.026 16.5153 57.7336 17.7092 57.6604 18.0326C57.5386 18.4554 57.8067 18.7787 58.2697 18.7787C58.3672 18.7787 59.4639 18.7787 60.8774 18.7787C60.853 18.8533 59.9269 22.435 59.1958 25.6435C58.8546 27.1856 57.6604 30.7921 55.7352 30.7921C54.5897 30.7921 54.1023 30.1952 54.1023 28.9267C54.1023 26.9369 56.0276 21.9127 56.0276 19.6493C56.0276 16.6148 54.4192 14.8489 51.1535 14.8489C49.082 14.8489 46.9618 16.2169 46.0357 17.4107C46.0357 17.4107 46.3038 16.4407 46.4012 16.0676C46.4987 15.6697 46.3038 15.2717 45.792 15.2717C45.0609 15.2717 43.2818 15.2717 42.5994 15.2717C41.9171 15.2717 41.7221 15.6448 41.6246 16.0428C41.5759 16.2169 40.4304 20.8183 39.3338 25.2704C38.5783 28.3049 36.7261 30.8419 34.7765 30.8419C33.7773 30.8419 33.3142 30.1952 33.3142 29.1008C33.3142 28.1556 33.9235 25.8176 34.6303 22.9076C35.5076 19.3757 36.2631 16.4407 36.3606 16.1174C36.458 15.6697 36.2875 15.2966 35.7269 15.2966C35.0446 15.2966 33.2411 15.2966 32.51 15.2966C31.9251 15.2966 31.7302 15.6199 31.6083 16.0428C31.6083 16.0428 30.7066 19.5498 29.7318 23.4299C29.025 26.2653 28.2695 29.1257 28.2695 30.4936C28.2695 32.9063 29.3418 34.722 32.2419 34.722C34.484 34.722 36.2875 33.553 37.6522 32.0606C37.4572 32.8565 37.3354 33.3788 37.311 33.4286C37.1892 33.8763 37.3354 34.2991 37.8715 34.2991C38.6027 34.2991 40.4548 34.2991 41.1616 34.2991C41.7465 34.2991 41.9658 34.0753 42.0633 33.553C42.1851 33.0555 44.6466 23.206 44.6466 23.206C45.3046 20.5447 46.913 18.8036 49.1551 18.8036C50.2274 18.8036 51.1535 19.5249 51.056 20.9426C50.9342 22.4847 49.1064 28.0561 49.1064 30.4936C49.1064 32.3342 49.7887 34.7468 53.2006 34.7468C55.5158 34.7468 57.2461 33.6027 58.489 32.1352C58.9521 33.7022 60.1462 34.7468 62.364 34.7468C66.0439 34.7468 68.2616 32.5083 69.5776 30.2698C70.6499 32.8814 73.1845 34.7468 76.9132 34.7468C80.6906 34.7468 83.6395 33.1301 85.711 30.8916C85.3454 32.384 85.0773 33.4037 85.053 33.4783C84.9311 33.9509 85.1261 34.324 85.6622 34.324C86.369 34.324 88.6111 34.324 88.9279 34.324C89.3665 34.324 89.6834 34.1002 89.8052 33.6027C89.854 33.3789 90.3414 31.5134 90.9994 28.8769C92.2666 23.8278 94.3138 18.5797 97.3845 18.5797C98.4568 18.5797 98.9198 19.2016 98.9198 20.1716C98.9198 20.6193 98.7979 21.0172 98.6761 21.2411C97.1895 20.9426 95.9953 21.6888 95.9953 23.3055C95.9953 24.375 97.092 25.3202 98.5542 25.3202C99.6753 25.3202 100.602 25.0466 101.357 24.5243C102.04 24.6735 102.795 24.8227 103.551 25.0217C103.429 25.7928 103.38 26.5389 103.38 27.2354C103.38 31.2896 106.207 34.722 111.3 34.722C115.273 34.722 118.027 33.2296 120.366 31.3393C121.512 33.2296 124.363 34.7717 128.116 34.7717C133.258 34.7717 136.183 32.0357 136.183 28.4292C136.183 25.1709 133.551 23.9522 130.846 22.9573C128.652 22.1365 126.8 21.7137 126.8 20.1218C126.8 18.8285 127.799 18.2315 129.53 18.2315C130.651 18.2315 131.479 18.4803 131.942 18.6046C132.381 19.7488 133.307 20.9924 134.867 20.9924C136.207 20.9924 136.792 19.9229 136.792 18.928C136.792 16.1174 132.21 15.8189 132.21 9.79977C132.21 6.04403 134.282 2.95985 138.595 2.95985C141.593 2.95985 143.543 4.8999 143.543 8.00896C143.543 10.5957 142.007 15.1722 142.007 15.1722C142.007 15.1722 139.473 15.1722 139.4 15.1722C138.888 15.1722 138.595 15.3712 138.498 15.8687C138.327 16.5651 138.035 17.759 137.962 18.0823C137.864 18.5051 138.108 18.8285 138.571 18.8285C138.668 18.8285 141.106 18.8285 141.106 18.8285C141.106 18.8285 138.474 28.7028 138.474 30.5185C138.474 32.9311 139.814 34.7468 142.738 34.7468C146.881 34.7468 149.44 32.0109 150.586 28.0313C150.683 27.7328 150.513 27.4841 150.196 27.4841C149.66 27.4841 148.855 27.4841 148.612 27.4841C148.295 27.4841 148.124 27.6582 148.027 27.9815C147.661 29.3993 146.784 30.8916 145.054 30.8916C144.054 30.8916 143.469 30.2449 143.469 29.1505C143.469 28.2054 144.079 25.9669 144.834 22.9573C145.2 21.3903 145.858 18.7041 145.858 18.7041ZM113.274 18.5549C114.737 18.5549 115.419 19.5498 115.419 20.7188C115.419 22.7086 113.908 23.9273 111.52 23.9273C110.667 23.9273 109.473 23.7283 108.766 23.4796C109.083 21.6639 110.399 18.5549 113.274 18.5549ZM78.9116 18.5549C80.52 18.5549 81.0562 19.5498 81.0562 20.7188C81.0562 22.7086 79.5452 23.9273 77.1569 23.9273C76.3039 23.9273 75.1098 23.7283 74.403 23.4796C74.7198 21.6639 75.8652 18.5549 78.9116 18.5549Z" fill="#080A28" fill-opacity="0.3"/>
<path id="Vector_3" d="M15.6703 0C5.26404 0 0 7.63584 0 13.9783C0 17.8335 1.43786 21.2659 4.48418 22.5344C4.99597 22.7334 5.43464 22.5344 5.58086 21.9624C5.67834 21.5644 5.92205 20.5695 6.01953 20.1716C6.16575 19.5995 6.11701 19.4005 5.70271 18.9279C4.82537 17.8584 4.26485 16.4904 4.26485 14.5255C4.26485 8.85459 8.40785 3.80548 15.061 3.80548C20.9587 3.80548 24.2 7.48661 24.2 12.3865C24.2 18.8533 21.3974 24.3004 17.2544 24.3004C14.9635 24.3004 13.2332 22.3603 13.7937 19.9974C14.4517 17.162 15.719 14.1027 15.719 12.0631C15.719 10.2226 14.7442 8.70536 12.7702 8.70536C10.4306 8.70536 8.5297 11.1926 8.5297 14.5006C8.5297 16.6148 9.23645 18.0325 9.23645 18.0325C9.23645 18.0325 6.82376 28.4292 6.40946 30.2449C5.58086 33.8763 6.28761 38.3036 6.33635 38.7513C6.36072 39.0249 6.70191 39.0746 6.84813 38.8756C7.06746 38.5772 9.87008 35.0702 10.8205 31.5383C11.0886 30.5434 12.3559 25.3948 12.3559 25.3948C13.1114 26.8871 15.3535 28.1805 17.7174 28.1805C24.7605 28.1805 29.5615 21.6142 29.5615 12.8342C29.5615 6.19324 24.0538 0 15.6703 0Z" fill="#080A28" fill-opacity="0.3"/>
</g>
<defs>
<clipPath id="clip0_4017_8319">
<rect width="151" height="39" fill="white"/>
</clipPath>
</defs>
</svg>
