<svg width="209" height="33" viewBox="0 0 209 33" fill="none" xmlns="http://www.w3.org/2000/svg">
<g id="samsung 1" clip-path="url(#clip0_4017_8306)">
<path id="Vector" d="M172.338 1.4955L172.747 25.001H172.546L165.773 1.4955H154.671V31.105H162.016L161.606 6.78081H161.808L169.055 31.105H179.682V1.4955H172.338ZM32.3901 1.4955L26.8393 31.4128H34.86L38.9549 4.19382H39.1239L43.1213 31.4128H51.077L45.5912 1.4955H32.3901ZM77.2777 1.4955L73.6183 24.3133H73.4168L69.7249 1.4955H57.6028L57.0243 31.4128H64.4731L64.6746 4.50164H64.7396L69.7184 31.4128H77.2647L82.2436 4.50164H82.445L82.6465 31.4128H90.0953L89.3868 1.4955H77.2777ZM14.3077 22.9183C14.6132 23.5995 14.5092 24.6212 14.4117 25.0993C14.2102 26.121 13.4952 27.1099 11.5323 27.1099C9.63433 27.1099 8.55536 26.0162 8.55536 24.4181V21.5168H0.599609V23.8025C0.599609 30.5221 5.84495 32.5 11.4348 32.5C16.7841 32.5 21.2495 30.6269 21.9644 25.7149C22.3739 23.1214 22.0684 21.4185 21.9644 20.8029C20.5735 14.4894 9.23784 12.721 8.45786 9.20406C8.35298 8.67442 8.35298 8.12911 8.45786 7.59947C8.65936 6.61052 9.33534 5.58883 11.1293 5.58883C12.9232 5.58883 13.9047 6.68257 13.9047 8.2806V10.0882H21.3535V8.00553C21.3535 1.48895 15.4971 0.5 11.3308 0.5C6.04644 0.5 1.68508 2.27487 0.905099 7.08207C0.636274 8.41527 0.671836 9.7926 1.0091 11.1099C2.19206 17.2859 12.8257 19.0935 14.3142 22.9118L14.3077 22.9183ZM110.96 22.9183C111.266 23.5995 111.162 24.5229 111.064 25.0993C110.863 26.121 110.148 27.1099 108.185 27.1099C106.287 27.1099 105.208 26.0162 105.208 24.4181V21.5168H97.2516V23.8025C97.2516 30.4173 102.4 32.4345 107.983 32.4345C113.332 32.4345 117.7 30.6269 118.409 25.6101C118.818 23.0166 118.513 21.412 118.409 20.6981C117.226 14.4894 105.988 12.6163 105.208 9.20406C105.103 8.67442 105.103 8.12911 105.208 7.59947C105.377 6.61052 106.085 5.58883 107.879 5.58883C109.569 5.58883 110.655 6.68257 110.655 8.2806V10.0882H117.999V8.00553C117.999 1.48895 112.247 0.5 108.081 0.5C102.796 0.5 98.532 2.17008 97.7521 7.08207C97.5506 8.37884 97.5506 9.60356 97.8171 11.1099C99.039 17.2859 109.465 18.9888 110.954 22.9118L110.96 22.9183ZM135.978 26.9134C138.077 26.9134 138.649 25.5119 138.857 24.7325C138.961 24.4247 138.961 23.9138 138.961 23.606V1.50205H146.507V23.0231C146.507 23.606 146.507 24.726 146.403 25.001C145.929 30.6269 141.529 32.4345 136.075 32.4345C130.622 32.4345 126.261 30.6269 125.747 25.001C125.747 24.726 125.643 23.5995 125.643 23.0231V1.50205H133.189V23.606C133.189 24.0186 133.189 24.4247 133.293 24.7325C133.293 25.5184 133.904 26.9134 135.965 26.9134H135.978ZM197.966 26.6056C200.17 26.6056 200.846 25.2041 201.047 24.4247C201.151 24.1169 201.151 23.606 201.151 23.3309V19.0018H198.07V14.6007H208.6V22.6171C208.6 23.2327 208.6 23.606 208.496 24.6277C207.989 30.1226 203.316 32.0285 198.07 32.0285C192.786 32.0285 188.152 30.116 187.645 24.6277C187.541 23.606 187.541 23.2262 187.541 22.6171V9.99652C187.541 9.51842 187.645 8.49673 187.645 8.01863C188.321 2.39276 192.792 0.585144 198.07 0.585144C203.316 0.585144 207.885 2.39276 208.496 8.01863C208.6 8.90279 208.6 9.99652 208.6 9.99652V11.0182H201.151V9.3154C201.151 9.3154 201.151 8.60151 201.047 8.18891C200.943 7.50778 200.339 6.00799 198.07 6.00799C195.867 6.00799 195.295 7.40954 195.093 8.18891C194.989 8.60151 194.989 9.11237 194.989 9.62321V23.3375C194.989 23.7108 194.989 24.1234 195.093 24.4312C195.093 25.2171 195.873 26.6122 197.973 26.6122L197.966 26.6056Z" fill="#080A28" fill-opacity="0.3"/>
</g>
<defs>
<clipPath id="clip0_4017_8306">
<rect width="208" height="32" fill="white" transform="translate(0.599609 0.5)"/>
</clipPath>
</defs>
</svg>
