<svg width="60" height="60" viewBox="0 0 60 60" fill="none" xmlns="http://www.w3.org/2000/svg">
<g id="Media / Headphones">
<path id="Vector" d="M47.5 27.5C47.5 17.835 39.665 10 30 10C20.335 10 12.5 17.835 12.5 27.5M40 36.25V41.25C40 42.4116 40 42.9925 40.0961 43.4755C40.4906 45.4589 42.0412 47.0103 44.0247 47.4048C44.5077 47.5009 45.0884 47.5009 46.25 47.5009C47.4116 47.5009 47.9925 47.5009 48.4755 47.4048C50.4589 47.0103 52.009 45.4589 52.4036 43.4755C52.4996 42.9925 52.5 42.4116 52.5 41.25V36.25C52.5 35.0884 52.4996 34.5064 52.4036 34.0234C52.009 32.04 50.4589 30.4906 48.4755 30.0961C47.9925 30 47.4116 30 46.25 30C45.0884 30 44.5077 30 44.0247 30.0961C42.0412 30.4906 40.4906 32.04 40.0961 34.0234C40 34.5064 40 35.0884 40 36.25ZM20 36.25V41.25C20 42.4116 19.9996 42.9925 19.9036 43.4755C19.509 45.4589 17.9588 47.0103 15.9753 47.4048C15.4923 47.5009 14.9117 47.5009 13.7501 47.5009C12.5885 47.5009 12.0077 47.5009 11.5247 47.4048C9.54121 47.0103 7.99061 45.4589 7.59607 43.4755C7.5 42.9925 7.5 42.4116 7.5 41.25V36.25C7.5 35.0884 7.5 34.5064 7.59607 34.0234C7.99061 32.04 9.54121 30.4906 11.5247 30.0961C12.0077 30 12.5885 30 13.7501 30C14.9117 30 15.4923 30 15.9753 30.0961C17.9588 30.4906 19.509 32.04 19.9036 34.0234C19.9996 34.5064 20 35.0884 20 36.25Z" stroke="#0741AD" stroke-width="2" stroke-linecap="round" stroke-linejoin="round"/>
</g>
</svg>
