<svg width="60" height="60" viewBox="0 0 60 60" fill="none" xmlns="http://www.w3.org/2000/svg">
<g id="Navigation / Map_Pin">
<path id="Union" fill-rule="evenodd" clip-rule="evenodd" d="M30.0002 8.5C25.6206 8.5 21.4224 10.221 18.3288 13.2806C15.2356 16.3398 13.5 20.4857 13.5 24.8071C13.5 30.5815 16.0293 35.9179 19.2045 40.3326C22.3747 44.7403 26.13 48.1467 28.4415 50.0393C29.1572 50.6253 29.3313 50.7469 29.5928 50.8205C29.8061 50.8806 30.1932 50.8806 30.4065 50.8205C30.6694 50.7465 30.8419 50.6267 31.5589 50.0397C33.8703 48.147 37.6255 44.7408 40.7956 40.3334C43.9706 35.9189 46.4998 30.5826 46.4998 24.8082C46.4998 20.4867 44.7642 16.3394 41.6711 13.2803C38.5775 10.2208 34.3798 8.5 30.0002 8.5ZM16.9224 11.8586C20.3927 8.42648 25.0972 6.5 30.0002 6.5C34.9032 6.5 39.6072 8.4262 43.0775 11.8583C46.5481 15.2908 48.4998 19.9492 48.4998 24.8082C48.4998 31.1635 45.7236 36.9069 42.4192 41.5012C39.1097 46.1025 35.2112 49.6341 32.8259 51.5871C32.7969 51.6109 32.7683 51.6344 32.7398 51.6577C32.1468 52.1441 31.6565 52.5463 30.9485 52.7457C30.3808 52.9055 29.6185 52.9055 29.0508 52.7457C28.3449 52.5469 27.8522 52.1428 27.2642 51.6603C27.2345 51.636 27.2046 51.6115 27.1745 51.5868L27.808 50.813L27.1745 51.5868C24.7891 49.6337 20.8905 46.1019 17.5809 41.5004C14.2763 36.906 11.5 31.1623 11.5 24.8071C11.5 19.948 13.4519 15.291 16.9224 11.8586ZM30 18.5C27.7909 18.5 26 20.2909 26 22.5C26 24.7091 27.7909 26.5 30 26.5C32.2091 26.5 34 24.7091 34 22.5C34 20.2909 32.2091 18.5 30 18.5ZM24 22.5C24 19.1863 26.6863 16.5 30 16.5C33.3137 16.5 36 19.1863 36 22.5C36 25.8137 33.3137 28.5 30 28.5C26.6863 28.5 24 25.8137 24 22.5Z" fill="#0741AD"/>
</g>
</svg>
