<svg width="61" height="60" viewBox="0 0 61 60" fill="none" xmlns="http://www.w3.org/2000/svg">
<g id="Communication / Paper_Plane">
<path id="Vector" d="M26.2694 34.2309L38.3848 22.1155M50.7782 14.7217L40.5516 47.9581C39.6352 50.9367 39.1766 52.4267 38.3861 52.9206C37.7005 53.349 36.8516 53.4206 36.1049 53.1108C35.2438 52.7535 34.545 51.3583 33.1508 48.57L26.6735 35.6152C26.4522 35.1728 26.3415 34.9525 26.1937 34.7607C26.0626 34.5906 25.9113 34.4374 25.7411 34.3062C25.5538 34.1618 25.3372 34.0535 24.9144 33.8422L11.9298 27.3499C9.14154 25.9557 7.74729 25.258 7.39001 24.397C7.08017 23.6502 7.15083 22.8006 7.57922 22.1149C8.07319 21.3243 9.56308 20.8651 12.5426 19.9483L45.7791 9.72168C48.1215 9.00095 49.2931 8.64086 50.0843 8.93133C50.7735 9.18433 51.3168 9.7271 51.5698 10.4163C51.8601 11.2071 51.4998 12.3782 50.7798 14.7182L50.7782 14.7217Z" stroke="#0741AD" stroke-width="2" stroke-linecap="round" stroke-linejoin="round"/>
</g>
</svg>
